# xmcd
#
# Track frame offsets: 
#        150
#        15739
#        29118
#        43803
#        57500
#        70933
#        85703
#        99038
#        114206
#        128228
#        142123
#        155115
#        169071
#        182218
#        195036
#        211368
#        225841
#        241178
#        253278
#        268408
#        280003
#        291437
#        304554
#        317801
#
# Disc length: 4451 seconds
#
# Revision: 2
# Processed by: cddbd v1.5.2PL0 Copyright (c) Steve Scherf et al.
# Submitted via: ExactAudioCopy v0.95a5
#
DISCID=5c116118
DTITLE=Ayn Rand - Atlas Shrugged Disc 03
DYEAR=2008
DGENRE=Audiobook
TTITLE0=01 01
TTITLE1=02 02
TTITLE2=03 03
TTITLE3=04 04
TTITLE4=05 05
TTITLE5=06 06
TTITLE6=07 07
TTITLE7=08 08
TTITLE8=09 09
TTITLE9=10 10
TTITLE10=11 11
TTITLE11=12 12
TTITLE12=13 13
TTITLE13=14 14
TTITLE14=15 15
TTITLE15=16 16
TTITLE16=17 17
TTITLE17=18 18
TTITLE18=19 19
TTITLE19=20 20
TTITLE20=21 21
TTITLE21=22 22
TTITLE22=23 23
TTITLE23=24 24
EXTD=
EXTT0=
EXTT1=
EXTT2=
EXTT3=
EXTT4=
EXTT5=
EXTT6=
EXTT7=
EXTT8=
EXTT9=
EXTT10=
EXTT11=
EXTT12=
EXTT13=
EXTT14=
EXTT15=
EXTT16=
EXTT17=
EXTT18=
EXTT19=
EXTT20=
EXTT21=
EXTT22=
EXTT23=
PLAYORDER=
